<?xml version="1.0" encoding="UTF-8"?>
<svg version="1.1" xmlns="http://www.w3.org/2000/svg" width="2481" height="3508">
<path d="M0 0 C0.91970581 0.05091797 1.83941162 0.10183594 2.7869873 0.15429688 C95.39247658 5.33341897 188.07290478 19.52288657 402 92 C403.14823242 92.50466797 404.29646484 93.00933594 405.47949219 93.52929688 C462.63540204 118.73065162 519.55305867 145.57907394 567 187 C567.77859375 187.66644531 568.5571875 188.33289062 569.359375 189.01953125 C582.21750834 200.25931333 594.56771058 212.46939906 605 226 C605.89741094 227.08893982 606.79872765 228.17466811 607.703125 229.2578125 C640.66260613 268.99324147 662.72594327 317.4399669 672.75 367.9375 C672.9365918 368.86288574 673.12318359 369.78827148 673.31542969 370.74169922 C673.95262475 374.15132201 674.4982928 377.56838267 675 381 C675.12634827 381.86164764 675.25269653 382.72329529 675.38287354 383.61105347 C677.86484664 401.13226352 678.49311886 418.44513162 678.38652039 436.12419128 C678.37480238 438.22289362 678.36828879 440.32156055 678.36291504 442.42028809 C678.29533093 465.0399925 677.59217953 487.51407515 675 510 C674.85546387 511.2694043 674.71092773 512.53880859 674.56201172 513.84667969 C668.43075464 565.40899007 652.78730904 613.64071565 628.37939453 659.34985352 C626.56125692 662.84293029 624.87984655 666.39769108 623.22119141 669.96899414 C621.88705196 672.18784781 620.90733493 673.12403353 618.625 674.3125 C614.91735982 675.01567314 613.09775019 674.76739264 609.70849609 673.18481445 C606.42517791 670.90788631 605.13594679 667.47931202 603.5 663.9375 C602.64182866 662.2031913 601.7782366 660.47155769 600.91015625 658.7421875 C600.44625488 657.81245117 599.98235352 656.88271484 599.50439453 655.92480469 C596.82034786 650.70655102 593.88036847 645.63799862 590.9375 640.5625 C590.30593994 639.47211426 589.67437988 638.38172852 589.02368164 637.25830078 C582.52029989 626.09091028 575.81439366 615.04818196 569.06898499 604.02584839 C566.81168469 600.33560784 564.57059227 596.6360308 562.33984375 592.9296875 C554.19522196 579.41596002 545.70612767 566.15835593 537 553 C536.52046875 552.27312988 536.0409375 551.54625977 535.546875 550.79736328 C525.60533926 535.73520564 515.33996389 520.91918344 504.70458984 506.33837891 C503.55697532 504.76406611 502.41150632 503.18818732 501.26806641 501.61083984 C494.13419828 491.77163999 486.81806877 482.15332565 479.08984375 472.7734375 C476.12160461 469.1678918 473.24128909 465.49926626 470.375 461.8125 C466.36310215 456.66628362 462.22517713 451.64764311 457.98608398 446.68725586 C455.08361529 443.29057321 452.24387385 439.85214159 449.4375 436.375 C445.56420728 431.61479947 441.49240008 427.07195216 437.33984375 422.5546875 C435.34165152 420.37302185 433.37851111 418.16988691 431.4375 415.9375 C427.34929622 411.23940102 423.18258861 406.61412553 419 402 C418.55043945 401.50387207 418.10087891 401.00774414 417.63769531 400.49658203 C412.76662375 395.12829036 407.88044975 389.80444632 402.69897461 384.73144531 C401.07060091 383.07195023 399.57438926 381.35742246 398.07421875 379.58203125 C393.37251257 374.17909564 388.30183063 369.15204812 383.23022461 364.09985352 C381.56573723 362.4407268 379.90666553 360.77631949 378.24804688 359.11132812 C373.17923797 354.03967844 368.07713197 349.06184528 362.62084961 344.40258789 C360.46862229 342.54017699 358.48110546 340.54206255 356.5 338.5 C353.16879193 335.12899935 349.74888372 331.9548597 346.15234375 328.87109375 C343.61947838 326.66920171 341.15667478 324.39804174 338.6875 322.125 C334.14475315 317.97754742 329.45880038 314.06767305 324.671875 310.20703125 C322.1014095 308.08376662 319.64080637 305.88188151 317.1875 303.625 C312.8122041 299.64244719 308.25270734 295.9818193 303.58129883 292.35888672 C299.78487785 289.41224454 296.04190563 286.41206051 292.33105469 283.35839844 C283.23572398 275.87961178 273.88521581 268.77486091 264.41259766 261.78173828 C262.9020508 260.66617757 261.39357055 259.54780694 259.88818359 258.42529297 C190.95366105 207.04813601 113.41678153 165.09482419 14 127 C13.27721863 126.73401001 12.55443726 126.46802002 11.80975342 126.19396973 C-75.98877662 93.93093267 -168.58025683 73.02051269 -297.60623169 62.14102173 C-299.18280738 62.04814247 -300.75921346 61.95233028 -302.3354187 61.85336304 C-321.9720177 60.64471141 -341.64740288 60.79951175 -361.3125 60.8125 C-362.6679039 60.81290031 -362.6679039 60.81290031 -364.0506897 60.81330872 C-389.9025541 60.82289864 -415.70452501 60.87306933 -441.49737549 62.81317139 C-444.23721935 63.01770915 -446.97766514 63.21255505 -449.71826172 63.40673828 C-455.9598006 63.85268405 -462.19888668 64.32748887 -468.4375 64.8125 C-469.36481934 64.88327759 -470.29213867 64.95405518 -471.24755859 65.02697754 C-511.48320539 68.15230315 -551.47442196 74.17195246 -591.41699219 79.79589844 C-596.70998951 80.54073044 -602.00396471 81.27824307 -607.29861832 82.01120377 C-609.28855555 82.28822878 -611.27809564 82.56812304 -613.2672081 82.85100937 C-616.00779754 83.24071184 -618.7495235 83.62115819 -621.49169922 83.99951172 C-622.29965439 84.11681137 -623.10760956 84.23411102 -623.94004822 84.35496521 C-627.60095021 84.8507797 -630.46164299 85.04658802 -634 84 C-620.30715824 80.10282152 -606.53872014 76.57214091 -592.72265625 73.140625 C-590.50046251 72.58665159 -588.27833153 72.03242636 -586.05625916 71.47796631 C-580.23590473 70.02617632 -574.41490087 68.5770096 -568.59368896 67.12866211 C-559.36831814 64.8331226 -550.14369242 62.53459681 -540.91952324 60.23423386 C-538.66108776 59.67128185 -536.40253871 59.10878526 -534.14387703 58.54674149 C-523.4894894 55.89549834 -512.83669934 53.24359978 -502.22045898 50.44287109 C-482.0912922 45.13652885 -461.88621904 40.64389419 -441.46133041 36.62237549 C-438.88226636 36.11411501 -436.30383317 35.60274635 -433.72549438 35.09082031 C-347.90461598 18.0750373 -261.04818756 5.00907021 -173.62969971 0.14715576 C-170.97534753 -0.00137953 -168.32142972 -0.15645894 -165.66748047 -0.31201172 C-110.60072395 -3.47850457 -55.05812721 -3.09071481 0 0 Z " fill="#EA2630" transform="translate(1217,914)"/>
<path d="M0 0 C18.01225882 16.27292528 18.54908823 58.47082238 21 81 C21.11327637 81.99499512 21.22655273 82.98999023 21.34326172 84.01513672 C32.1695126 180.76727138 12.60909343 281.01982192 -56.28515625 379.18359375 C-58.96475449 382.52940147 -61.68711904 385.83752249 -64.43554688 389.12695312 C-65.45393678 390.34622393 -66.46847291 391.56872735 -67.47851562 392.79492188 C-78.71862962 406.43819962 -90.96991074 419.20604812 -105 430 C-105.95519531 430.77214844 -106.91039062 431.54429687 -107.89453125 432.33984375 C-155.52226447 470.26230303 -215.72878485 488.17647523 -273.9354248 502.49151611 C-275.89030091 502.97298223 -277.84410991 503.45877509 -279.79785156 503.94482422 C-344.11959715 519.86458653 -409.9175822 528.22705548 -476 532 C-477.22509277 532.07202637 -478.45018555 532.14405273 -479.71240234 532.21826172 C-585.03479007 538.09461812 -691.41470769 526.04179795 -863 489 C-864.00832886 488.74496704 -865.01665771 488.48993408 -866.05554199 488.22717285 C-962.32232531 463.85122999 -1055.23685528 430.1209687 -1197.17327118 361.90232086 C-1199.08062782 360.96017353 -1200.98831233 360.01869263 -1202.89605713 359.07733154 C-1211.344476 354.90781902 -1219.7865621 350.72576599 -1228.22259521 346.53125 C-1230.98750637 345.15679228 -1233.75415814 343.78594663 -1236.52252197 342.41845703 C-1252.90387907 334.32247156 -1268.89674007 325.85394549 -1284.57839966 316.44754028 C-1287.76199175 314.54451041 -1290.97091891 312.6904612 -1294.1875 310.84375 C-1295.16154785 310.28308838 -1296.1355957 309.72242676 -1297.13916016 309.14477539 C-1298.0832373 308.60199951 -1299.02731445 308.05922363 -1300 307.5 C-1312.36145331 300.3812204 -1324.68636384 293.20114337 -1337 286 C-1332.93395393 284.64465131 -1330.73501429 286.19729176 -1327.0703125 287.9453125 C-1326.37662567 288.26650055 -1325.68293884 288.5876886 -1324.9682312 288.91860962 C-1322.68301698 289.97875271 -1320.40422689 291.05205347 -1318.125 292.125 C-1316.53439423 292.86476909 -1314.9432422 293.60336472 -1313.3515625 294.34082031 C-1310.92098858 295.46704456 -1308.490729 296.59388857 -1306.06207275 297.72424316 C-1295.24268508 302.75894019 -1284.33785862 307.6000186 -1273.43798828 312.45751953 C-1270.01170531 313.99474832 -1266.5967771 315.55502184 -1263.18359375 317.12109375 C-1248.03006086 324.0370352 -1232.72208379 329.98383316 -1216.95056152 335.33526611 C-1214.92751477 336.02470232 -1212.90733745 336.72204318 -1210.88769531 337.42138672 C-1118.49770148 369.38286432 -1020.93459423 388.80553952 -372.03515625 293.12890625 C-359.63106884 287.06519404 -347.62592846 280.38210784 -335.65429688 273.51074219 C-332.50875355 271.72039799 -329.33808556 269.97978718 -326.16162109 268.24511719 C-307.56191781 258.06926868 -289.68525621 246.67642664 -272 235 C-270.74354467 234.17569727 -269.48703807 233.3514727 -268.23046875 232.52734375 C-243.12302667 215.98965179 -218.83547889 198.30957198 -195 180 C-193.75800729 179.04922466 -192.51584249 178.09867404 -191.2734375 177.1484375 C-180.60253958 168.97747023 -170.00755272 160.71276208 -159.6328125 152.16796875 C-157.88270474 150.72685627 -156.12750388 149.29190597 -154.3671875 147.86328125 C-144.08350797 139.51341318 -134.02846738 130.90590628 -124.21875 122.00390625 C-122.20691607 120.18688018 -120.17339566 118.40055608 -118.125 116.625 C-101.11468027 101.77901519 -84.8759309 86.03546059 -68.9296875 70.0625 C-67.46874226 68.60223138 -66.00764886 67.14211096 -64.54641724 65.68212891 C-61.52151146 62.65867908 -58.49837487 59.63347506 -55.4765625 56.60693359 C-51.62158855 52.74621712 -47.76207759 48.89007212 -43.90125847 45.03520203 C-40.89846463 42.03603186 -37.89806876 39.03447183 -34.89838028 36.03219604 C-33.47587363 34.60902751 -32.0526382 33.18658697 -30.62862778 31.7649231 C-21.19225141 22.41350253 -21.19225141 22.41350253 -12.31471252 12.53833008 C-10.04444001 9.8819102 -7.55414426 7.44684291 -5.0625 5 C-4.56943359 4.51144531 -4.07636719 4.02289062 -3.56835938 3.51953125 C-2.38126771 2.34396475 -1.19099502 1.17161174 0 0 Z " fill="#0C58A4" transform="translate(1608,1353)"/>
<path d="M0 0 C8.0014013 -0.03518374 16.00275802 -0.06277722 24.00422859 -0.07794762 C26.33471042 -0.08310064 28.66518888 -0.09029952 30.99565697 -0.09981728 C48.03617147 -0.1659351 64.68365648 0.48428267 81.56502914 3.01963043 C82.55937973 3.15884918 83.55373032 3.29806793 84.57821274 3.44150543 C132.65549827 10.27691348 184.91443445 29.04838389 220.08602524 63.57138824 C221.52860214 64.98396107 222.9938567 66.37325653 224.45956039 67.76181793 C263.4580701 105.39674339 281.42181095 162.62783721 282.69002914 215.73447418 C283.64495054 274.75423352 265.1607 331.54599953 224.00497055 374.53916168 C189.17716004 410.34720558 138.49477826 432.495476 89.56502914 440.01963043 C88.7938475 440.14128571 88.02266586 440.26294098 87.22811508 440.38828278 C67.29288273 443.42385459 46.83495534 443.1672088 26.71786118 443.25669098 C24.54190492 443.26959126 22.36595076 443.28284692 20.18999863 443.29642487 C14.3603816 443.33154548 8.53075028 443.36102935 2.70109415 443.3888166 C-0.94964479 443.40645784 -4.6003755 443.42531146 -8.25110626 443.44456673 C-21.00882684 443.51176196 -33.76656089 443.5741458 -46.52432632 443.63217926 C-58.38928038 443.68628768 -70.25414042 443.75142961 -82.11900985 443.82151765 C-92.34540102 443.88141791 -102.5718129 443.93346307 -112.79827607 443.9794448 C-118.88985878 444.00697849 -124.98138394 444.0377051 -131.07290649 444.07645988 C-136.78746566 444.11256443 -142.50198769 444.13888947 -148.21662903 444.15773773 C-150.30921031 444.16629541 -152.40178079 444.17832316 -154.49431992 444.19412422 C-157.35609 444.21518905 -160.21763498 444.22358541 -163.07947159 444.22890472 C-164.31230088 444.24245649 -164.31230088 444.24245649 -165.57003582 444.25628203 C-171.8823725 444.24722111 -178.08888059 443.56397979 -183.87247086 440.89463043 C-187.71566644 436.28279573 -187.68517266 429.28866008 -187.68665314 423.55797482 C-187.68956002 422.84847778 -187.6924669 422.13898075 -187.69546187 421.40798381 C-187.70273155 419.04247769 -187.69583282 416.67723344 -187.68893814 414.31172943 C-187.69124377 412.59389554 -187.69442098 410.87606264 -187.69839263 409.15823179 C-187.70673516 404.44673927 -187.7026178 399.73532786 -187.69642019 395.02383506 C-187.69189455 389.93926247 -187.69888001 384.8547038 -187.70438004 379.77013397 C-187.71327426 369.81328044 -187.71135194 359.85645706 -187.70555475 349.89960235 C-187.70103865 341.80822148 -187.70042514 333.71684907 -187.70260239 325.6254673 C-187.70290885 324.474022 -187.70321532 323.32257671 -187.70353107 322.13623913 C-187.70417052 319.79713952 -187.70481895 317.45803991 -187.70547625 315.1189403 C-187.71117957 293.18446954 -187.70462149 271.25001549 -187.69387552 249.31554747 C-187.68493882 230.49123277 -187.68649303 211.66694274 -187.69571304 192.84262848 C-187.70641359 170.98528038 -187.7106315 149.12794692 -187.70448852 127.27059656 C-187.70385141 124.94039031 -187.70322267 122.61018406 -187.70260239 120.2799778 C-187.70229384 119.13345281 -187.70198528 117.98692783 -187.70166738 116.80565966 C-187.69993989 108.72267708 -187.7028567 100.63970378 -187.70756149 92.55672264 C-187.71316787 82.70827036 -187.71165893 72.85984997 -187.70100001 63.01140135 C-187.69574022 57.98577442 -187.69369183 52.96020067 -187.70029831 47.93457413 C-187.70625339 43.33495523 -187.70298989 38.73543886 -187.69234321 34.13582928 C-187.69010733 32.47108376 -187.69124966 30.8063296 -187.69609478 29.14158963 C-187.70217415 26.87941812 -187.69594043 24.61759809 -187.68665314 22.35544491 C-187.68632843 21.09873027 -187.68600373 19.84201564 -187.68566918 18.54721874 C-187.32925109 13.53204243 -186.75553157 9.37687338 -183.18497086 5.70713043 C-172.61844382 -0.77687479 -158.37949452 0.86510574 -146.43570328 0.81430817 C-144.97786579 0.8046963 -143.52003089 0.79468448 -142.06219864 0.78430939 C-138.12753285 0.75747335 -134.19285554 0.73631324 -130.25814986 0.7163074 C-126.06831693 0.69409389 -121.87851633 0.66683371 -117.68870926 0.64025116 C-110.61008613 0.59605909 -103.53145001 0.55533031 -96.45279312 0.51694489 C-89.3095442 0.4781949 -82.16631926 0.43673612 -75.02310562 0.39194489 C-74.1547333 0.38650339 -73.28636098 0.38106189 -72.39167434 0.3754555 C-71.52509851 0.37002368 -70.65852269 0.36459186 -69.76568699 0.35899544 C-48.74933927 0.22729385 -27.73294568 0.11739912 -6.71637011 0.02930164 C-4.47757877 0.01981105 -2.23878932 0.0099544 0 0 Z M-35.43497086 123.01963043 C-36.83101111 126.78310868 -36.58012952 130.7515611 -36.57541275 134.71137238 C-36.57838387 135.49051518 -36.58135499 136.26965799 -36.58441615 137.07241118 C-36.59309398 139.68552508 -36.59461062 142.29859311 -36.59610367 144.91172028 C-36.60073243 146.78432564 -36.60575716 148.65693006 -36.61114883 150.52953339 C-36.62426778 155.61837971 -36.63071661 160.70721284 -36.63515949 165.79607344 C-36.63809054 168.97480796 -36.64219538 172.15353887 -36.64666367 175.33227158 C-36.66033619 185.2762937 -36.6700045 195.22030759 -36.67386556 205.16433847 C-36.67834828 216.64645314 -36.69590716 228.12844889 -36.72486615 239.6105274 C-36.74647124 248.48451621 -36.75656918 257.35847153 -36.75790668 266.23248637 C-36.75895538 271.5334007 -36.76487742 276.83420321 -36.78272629 282.13508987 C-36.79918704 287.12061353 -36.80137216 292.10594104 -36.79258728 297.09148216 C-36.79181588 298.92083575 -36.79617312 300.75019979 -36.80604553 302.5795269 C-36.81873755 305.07789251 -36.81290343 307.57556049 -36.80246353 310.0739212 C-36.81051994 310.7968868 -36.81857634 311.5198524 -36.82687688 312.26472604 C-36.78155643 316.905595 -35.8620452 320.0688346 -33.43497086 324.01963043 C-30.27358033 326.39386167 -27.23234899 326.27777445 -23.36319351 326.29428864 C-22.13315598 326.30382065 -20.90311844 326.31335266 -19.63580704 326.32317352 C-18.29021552 326.32291159 -16.94462399 326.3219721 -15.59903336 326.32041168 C-14.20013682 326.32430725 -12.80124145 326.32864367 -11.40234756 326.33339691 C-8.45843069 326.34086573 -5.51463358 326.34056944 -2.57071304 326.33530426 C0.40437773 326.33072361 3.37905496 326.33739003 6.35409164 326.35581207 C41.13085179 326.56937522 72.85939086 324.40104617 100.56502914 301.01963043 C101.23018539 300.46920074 101.89534164 299.91877106 102.58065414 299.35166168 C117.19401669 286.06989058 124.73613149 265.87550834 128.56502914 247.01963043 C128.79061508 245.96259918 129.01620102 244.90556793 129.24862289 243.81650543 C134.15716245 216.32868392 130.9653105 184.85156582 115.56502914 161.01963043 C113.36035792 157.90144961 111.01275771 154.94932325 108.56502914 152.01963043 C108.04424789 151.35318512 107.52346664 150.68673981 106.98690414 150.00009918 C91.1008513 130.45100017 64.51014761 121.20617821 40.27059555 118.50058746 C33.37375605 117.82983417 26.46961594 117.79579464 19.54549789 117.74619293 C18.49294028 117.73820742 18.49294028 117.73820742 17.41911888 117.73006058 C13.71752271 117.70355648 10.0159579 117.68409554 6.31429672 117.66953278 C3.26386673 117.6561171 0.21409359 117.62809492 -2.8360939 117.58750153 C-6.54353823 117.5381986 -10.25038134 117.51341939 -13.95813942 117.50630569 C-15.36357296 117.49960584 -16.76899365 117.48441643 -18.1742382 117.46041489 C-20.13566644 117.428773 -22.09755994 117.43172756 -24.05923843 117.43613434 C-25.17269135 117.42804749 -26.28614426 117.41996063 -27.43333817 117.41162872 C-31.44084777 118.22337784 -32.91707052 119.86235268 -35.43497086 123.01963043 Z " fill="#0C58A4" transform="translate(356.4349708557129,2073.980369567871)"/>
<path d="M0 0 C1.19011084 -0.00384115 2.38022169 -0.00768229 3.6063965 -0.01163983 C4.92037862 -0.01077335 6.23436075 -0.00990687 7.58816051 -0.00901413 C8.99303128 -0.01159714 10.39790131 -0.01461012 11.80277032 -0.01801753 C15.67234894 -0.02609828 19.54190903 -0.0278777 23.41149509 -0.028615 C27.5813353 -0.03046368 31.75116584 -0.03801005 35.92100048 -0.04475021 C45.04283428 -0.05834149 54.16466369 -0.06435943 63.28650594 -0.06876087 C68.98005755 -0.07152184 74.67360747 -0.07575891 80.36715794 -0.08026505 C96.12485459 -0.09245853 111.88254989 -0.10275783 127.64025116 -0.10614014 C129.15351221 -0.10646949 129.15351221 -0.10646949 130.6973442 -0.10680549 C131.7086244 -0.10702377 132.71990461 -0.10724204 133.76182967 -0.10746694 C135.81113295 -0.10791041 137.86043622 -0.10835697 139.90973949 -0.10880661 C140.92626876 -0.10902804 141.94279803 -0.10924947 142.99013122 -0.10947761 C159.4658502 -0.1134266 175.94152498 -0.13088336 192.41722689 -0.15416613 C209.32459814 -0.17786647 226.2319472 -0.19034138 243.13933533 -0.19150805 C252.63544762 -0.19242554 262.13150232 -0.19819622 271.62759876 -0.21632767 C279.71292807 -0.23171085 287.79818199 -0.23685966 295.88352314 -0.22858956 C300.00981207 -0.22467678 304.13594909 -0.22564319 308.26221943 -0.23964691 C312.03921591 -0.25234822 315.81594575 -0.25122173 319.59294166 -0.2390562 C321.60749145 -0.236162 323.62204569 -0.24806346 325.63655931 -0.26047826 C327.43346044 -0.25059349 327.43346044 -0.25059349 329.2666626 -0.24050903 C330.81462138 -0.24140467 330.81462138 -0.24140467 332.39385206 -0.24231839 C336.7686826 0.31606329 340.16257543 1.85196009 343.13459301 5.13142776 C345.75311317 9.54156698 345.47662213 13.85951683 345.48322582 18.82210159 C345.48819073 19.71023041 345.49315563 20.59835922 345.49827099 21.51340103 C345.51289035 24.45509488 345.51969438 27.39673479 345.52521801 30.33845901 C345.53096982 32.38246029 345.53672755 34.42646155 345.54249096 36.4704628 C345.55300042 40.75857673 345.55884339 45.04667191 345.56232738 49.33479691 C345.56781079 54.82602143 345.59183587 60.31699784 345.62029934 65.80814457 C345.63893531 70.03151546 345.64413184 74.25482671 345.64566326 78.47823524 C345.64868834 80.50241006 345.65671198 82.52658386 345.66984844 84.55071831 C345.68692817 87.38486023 345.68502388 90.21839764 345.67853832 93.05257034 C345.68775311 93.8865535 345.69696789 94.72053665 345.70646191 95.57979202 C345.67152234 100.4608741 345.23157655 104.01691196 342.32209301 108.13142776 C337.6416811 111.07461629 333.59982678 111.56020138 328.2000227 111.5099678 C326.99811857 111.516763 326.99811857 111.516763 325.77193356 111.52369547 C323.09577822 111.53529251 320.42012531 111.52568348 317.74396801 111.51619339 C315.8218049 111.52029971 313.89964429 111.52576093 311.97748852 111.53247452 C307.84252023 111.54419251 303.7076854 111.54668636 299.57270336 111.54211807 C293.03434469 111.53530802 286.49616162 111.55117674 279.9578352 111.57051468 C264.89886879 111.61158861 249.83990722 111.62291631 234.78089428 111.63404465 C220.97823779 111.64455027 207.17566562 111.66131735 193.37306118 111.70214033 C186.87335563 111.7205052 180.3738508 111.72438588 173.87412548 111.71720505 C169.83126163 111.71568385 165.78849832 111.72646286 161.74566174 111.74058342 C159.87116404 111.74458791 157.99664728 111.74345793 156.1221571 111.73681068 C153.56257981 111.72843122 151.00369869 111.7384169 148.44416332 111.75288773 C147.70310722 111.74599379 146.96205112 111.73909986 146.19853878 111.73199701 C141.51438982 111.78356018 138.3045899 112.66395095 134.32209301 115.13142776 C129.2418189 122.41312302 131.30142108 134.5475654 131.63459301 142.88142776 C131.67004223 144.07381058 131.70549145 145.26619339 131.74201488 146.49470901 C131.78519848 147.64841995 131.82838207 148.80213089 131.87287426 149.99080276 C131.92955273 151.54492874 131.92955273 151.54492874 131.98737621 153.1304512 C132.35269749 156.40581891 133.0123832 159.10549893 134.32209301 162.13142776 C137.12774972 163.06664667 138.93974525 163.28131501 141.85015392 163.33873367 C142.77963533 163.35907291 143.70911674 163.37941216 144.66676426 163.40036774 C146.19469325 163.42603884 146.19469325 163.42603884 147.75348949 163.45222855 C148.8280924 163.47339108 149.90269531 163.4945536 151.00986195 163.51635742 C154.59172284 163.58417429 158.17365627 163.64360779 161.75568676 163.70174026 C162.99522043 163.72316212 164.2347541 163.74458397 165.5118494 163.76665497 C184.83675765 164.09523401 204.15437635 164.18912056 223.48224926 164.12361526 C225.33182798 164.11786358 225.33182798 164.11786358 227.21877193 164.1119957 C238.53396962 164.07565043 249.84908414 164.02866749 261.16413403 163.96004105 C267.47267363 163.92245601 273.78112614 163.89942231 280.08976078 163.88573456 C282.45363371 163.87773217 284.81749517 163.86419797 287.18130207 163.84480286 C290.43806421 163.81837505 293.69438754 163.81043998 296.9512434 163.80672073 C297.90408215 163.79436386 298.85692089 163.78200699 299.83863354 163.76927567 C305.43377153 163.7861563 309.47145304 164.23103231 314.32209301 167.13142776 C318.72452617 171.9241756 318.90364416 176.07279208 318.85554028 182.25447464 C318.86415585 183.1527951 318.87277142 184.05111557 318.88164806 184.97665787 C318.90428022 187.9347941 318.89757465 190.89198096 318.88849926 193.85017776 C318.89373576 195.91231441 318.90001233 197.97444865 318.90728283 200.03657913 C318.91768174 204.35395471 318.91313229 208.67100057 318.89850903 212.98836136 C318.8813151 218.51676899 318.90482709 224.0441379 318.93999863 229.57242966 C318.96197365 233.82931256 318.96053097 238.0859469 318.95223331 242.3428688 C318.95141399 244.38099686 318.95827371 246.41914319 318.97300434 248.45721817 C318.99045361 251.30825294 318.975905 254.15742073 318.95319653 257.00838089 C318.96488873 257.84700165 318.97658092 258.68562241 318.98862743 259.54965591 C318.92523192 263.46789196 318.60977525 266.34391768 316.28264904 269.57661819 C308.92508454 275.92582287 298.86424547 274.38607883 289.6856184 274.31087112 C288.10300512 274.30538917 286.52038837 274.30084166 284.93776989 274.29715347 C281.54166269 274.28747495 278.1456594 274.27167792 274.74960041 274.25119209 C269.37391312 274.21925705 263.99825529 274.20385474 258.62249279 274.19113541 C245.27187056 274.15712054 231.92132998 274.1044442 218.57081127 274.04201126 C208.1895039 273.99349588 197.80827011 273.95143466 187.42686552 273.93050295 C182.08868365 273.91901456 176.7508068 273.89366539 171.41273606 273.85775554 C168.08540352 273.83849275 164.75813203 273.83187476 161.43074894 273.82869148 C159.89450723 273.82469046 158.35826843 273.81554949 156.82209301 273.80072784 C148.84321908 273.72655318 141.70055107 273.76019324 134.32209301 277.13142776 C131.90991447 281.39036434 131.94883768 286.08848288 131.80256176 290.90877151 C131.77608059 291.63834564 131.74959942 292.36791977 131.72231579 293.1196022 C131.66989791 294.65488482 131.62226273 296.19033745 131.57917309 297.72591019 C131.50987623 300.05939061 131.41381838 302.39077726 131.31623363 304.72322464 C131.26837189 306.22252221 131.22209553 307.7218714 131.17756176 309.22127151 C131.14647823 309.91002869 131.11539471 310.59878586 131.08336926 311.30841446 C130.97667298 316.42052572 131.97156787 319.69383691 134.32209301 324.13142776 C140.20727929 328.99310339 145.52108301 329.28190755 152.89716625 329.25841141 C153.65180676 329.2599714 154.40644727 329.26153139 155.18395567 329.26313865 C157.70853704 329.26712192 160.23305809 329.26396925 162.75763988 329.2608223 C164.56977403 329.26217761 166.3819079 329.26395828 168.19404125 329.26613235 C173.11595554 329.27069376 178.03784887 329.26892173 182.95976353 329.26575327 C188.11866722 329.26321992 193.27756913 329.26557022 198.43647289 329.26713943 C207.10863599 329.26895958 215.78079058 329.26656023 224.45295238 329.26179886 C234.45537264 329.25637026 244.45777246 329.2581093 254.4601922 329.26362526 C263.06085143 329.26817721 271.66150455 329.26879636 280.26216459 329.26618659 C285.39277544 329.26463349 290.52337672 329.26440318 295.65398693 329.26772308 C300.48683142 329.27063158 305.31964987 329.26857182 310.15249157 329.26282883 C311.91762276 329.26151652 313.68275618 329.26186905 315.44788647 329.26409149 C317.8756761 329.26686417 320.30336798 329.26453216 322.73115063 329.25841141 C323.47923205 329.25711046 324.22731348 329.25580952 324.99806404 329.25446916 C330.59123067 329.21297494 336.08844793 328.76752803 341.63942242 328.05265999 C344.99633627 328.1512247 346.63772716 329.16827573 349.32209301 331.13142776 C352.97397692 335.50456387 353.07707051 340.33842153 353.49396801 345.80720901 C353.61333721 347.25127876 353.61333721 347.25127876 353.73511791 348.72452164 C354.62734238 360.57911498 354.6286147 372.43757982 354.57209301 384.31892776 C354.5689912 385.47665695 354.5658894 386.63438614 354.5626936 387.82719803 C354.52087488 401.12566331 354.44697663 414.4201253 353.57209301 427.69392776 C353.51054028 428.74282181 353.44898754 429.79171585 353.38556957 430.87239456 C352.83788149 437.44749224 352.83788149 437.44749224 350.36896801 440.72127151 C346.86086517 443.13811336 344.80090261 443.25856991 340.54859066 443.26564884 C339.31170333 443.27010669 338.07481599 443.27456453 336.80044723 443.27915746 C335.41522677 443.27906815 334.03000631 443.27887828 332.64478588 443.27859879 C331.1830308 443.28189643 329.72127663 443.28562179 328.25952363 443.28974026 C324.22806593 443.2997797 320.19662313 443.30348017 316.1651547 443.30612957 C311.82283311 443.31002688 307.48052338 443.3196056 303.13820934 443.32834244 C292.64430223 443.34812307 282.15039414 443.35817506 271.65647304 443.36707023 C266.71810046 443.37145049 261.77972896 443.37681798 256.84135723 443.3820591 C240.43088917 443.39907294 224.02042178 443.41356795 207.60994625 443.42080784 C203.34944438 443.42271782 199.08894252 443.42463814 194.82844067 443.42659378 C193.76947729 443.42707752 192.71051391 443.42756126 191.61946073 443.42805966 C174.45821345 443.43636306 157.29703579 443.46170452 140.13581893 443.49417446 C122.527872 443.52721878 104.9199605 443.54525422 87.31198239 443.54845208 C77.42124284 443.55061961 67.53060483 443.55940373 57.63989544 443.58491325 C49.21782946 443.60658439 40.79588969 443.61468839 32.373799 443.60494647 C28.07532752 443.60039133 23.77711661 443.60235815 19.47868061 443.62170792 C15.5442981 443.63926619 11.61036766 443.63840205 7.67598084 443.62281062 C6.2519809 443.62042333 4.82795025 443.62481599 3.40399739 443.63663927 C-8.54897932 443.72974619 -8.54897932 443.72974619 -12.4394846 441.47594357 C-16.75625256 436.95457587 -16.92826473 431.88608045 -16.93238258 425.85619164 C-16.9371923 424.78572677 -16.9371923 424.78572677 -16.94209918 423.69363636 C-16.95040147 421.30197867 -16.94447414 418.91057125 -16.9386034 416.51890945 C-16.94162398 414.78701483 -16.94551299 413.05512155 -16.95019597 411.32323062 C-16.96049677 406.56354768 -16.95828884 401.80393989 -16.95401537 397.04425073 C-16.95155193 391.91122257 -16.96055757 386.77821269 -16.96805286 381.64519119 C-16.98081254 371.58880336 -16.98259197 361.53244221 -16.9802526 351.47604765 C-16.97847069 343.30310528 -16.98021636 335.13017102 -16.98447704 326.95722961 C-16.98507223 325.79470062 -16.98566742 324.63217162 -16.98628065 323.43441447 C-16.98749238 321.07284952 -16.98870651 318.71128457 -16.98992302 316.34971963 C-17.00080346 294.19490453 -16.99863369 272.04010465 -16.99253818 249.8852887 C-16.98736865 229.61202852 -16.99862452 209.33881639 -17.0176364 189.06556572 C-17.03700271 168.25502422 -17.04527291 147.44450546 -17.04151314 126.63395488 C-17.03959926 114.94800859 -17.04210692 103.2621032 -17.05622768 91.57616425 C-17.06812708 81.6277702 -17.06956257 71.67944222 -17.05743752 61.73104729 C-17.0515387 56.65465359 -17.05047712 51.57838082 -17.06243992 46.50199509 C-17.07326431 41.85470949 -17.07023645 37.2076463 -17.05617823 32.56037126 C-17.0535218 30.87939663 -17.05592745 29.19840477 -17.0639141 27.51744701 C-17.13389818 11.68882054 -17.13389818 11.68882054 -13.67790699 5.13142776 C-9.32538739 0.88772115 -5.94721488 0.00718691 0 0 Z " fill="#0C58A4" transform="translate(707.6779069900513,2073.8685722351074)"/>
<path d="M0 0 C1.17977921 0.03555244 1.17977921 0.03555244 2.38339233 0.07182312 C4.06846231 0.12262173 5.75346104 0.17583193 7.43838501 0.23126221 C11.94152102 0.37715723 16.44531578 0.49768378 20.94921875 0.6171875 C21.85801285 0.64137756 22.76680695 0.66556763 23.70314026 0.69049072 C40.50291947 1.12142105 57.30907985 1.15689613 74.10546875 0.58203125 C75.29431923 0.5424379 75.29431923 0.5424379 76.50718689 0.50204468 C80.33434341 0.37256961 84.16001908 0.22899807 87.9855957 0.05908203 C101.37629927 -0.4799673 110.9409871 1.4237012 122.31640625 8.56640625 C135.94134157 22.19134157 142.08226064 43.12098353 149.49072266 60.5222168 C154.41822304 72.09208965 159.43710477 83.6194005 164.50390625 95.12890625 C166.03269588 98.60280132 167.56134308 102.07675903 169.08984375 105.55078125 C169.46828934 106.41081757 169.84673492 107.27085388 170.23664856 108.1569519 C174.22310368 117.22120055 178.17713326 126.29949709 182.12890625 135.37890625 C187.93790765 148.7229892 193.77339763 162.05516763 199.62890625 175.37890625 C211.80780465 203.09588214 223.88848086 230.85531116 235.94692993 258.62487793 C236.92002961 260.8657633 237.89330741 263.10657132 238.86679077 265.34729004 C247.63577574 285.53387017 256.30926612 305.76074423 264.95223999 326.0015564 C275.64734453 351.0465403 286.37829945 376.07008933 297.47680664 400.93969727 C299.210538 404.82732736 300.93239255 408.7199119 302.63946533 412.61932373 C303.31329942 414.15815612 303.98996811 415.69574966 304.66912842 417.23223877 C305.67857338 419.52675581 306.66974004 421.82835668 307.65625 424.1328125 C307.95777481 424.81182114 308.25929962 425.49082977 308.56996155 426.19041443 C310.41916264 430.5789938 311.03052775 434.13376841 310.62890625 438.87890625 C308.86875494 442.06394195 308.12999709 442.71187597 304.62890625 443.87890625 C303.25588214 443.96301765 301.87907625 443.99234679 300.50349426 443.98570251 C299.66424911 443.98418686 298.82500397 443.9826712 297.96032715 443.98110962 C296.58354797 443.97100357 296.58354797 443.97100357 295.17895508 443.96069336 C294.20935349 443.9576268 293.23975189 443.95456024 292.24076843 443.95140076 C290.13076267 443.94423881 288.02076359 443.93484525 285.91077614 443.92350578 C282.55824466 443.90610628 279.20576099 443.89581088 275.85319519 443.8875885 C266.31883202 443.86316088 256.78453234 443.8279129 247.25024414 443.78295898 C241.41773088 443.75596044 235.58525562 443.73905487 229.75269127 443.72809029 C227.54140519 443.72193272 225.33012594 443.71199444 223.1188755 443.6980114 C211.88857319 443.62771153 200.93946207 443.75448646 189.81816101 445.41651917 C180.6146802 446.75086558 171.98492886 446.39605453 164.0234375 441.16796875 C152.03078924 431.4069328 148.16749841 416.40667805 143.44335938 402.26831055 C137.43222856 384.33772363 137.43222856 384.33772363 124.12890625 371.69140625 C114.50615884 367.36309615 103.33694583 367.58051429 92.97924805 367.58837891 C91.68322159 367.58166168 90.38719513 367.57494446 89.05189514 367.56802368 C85.53982365 367.55056305 82.02784992 367.54567734 78.5157392 367.54439211 C76.31535654 367.54296044 74.11499797 367.53867225 71.91462135 367.53339767 C64.22195507 367.51497539 56.52935754 367.50671869 48.83666992 367.50830078 C41.68881991 367.50950551 34.54127018 367.48831848 27.39349622 367.45681345 C21.23008845 367.43062374 15.0667788 367.41993435 8.90331584 367.4212116 C5.23331971 367.42171971 1.56359214 367.41611833 -2.10634804 367.3948555 C-6.19391012 367.37181025 -10.2807989 367.38101031 -14.3684082 367.39306641 C-15.57222137 367.38182739 -16.77603455 367.37058838 -18.0163269 367.35900879 C-25.70290399 367.41659754 -31.64431472 368.17754864 -37.33959961 373.83398438 C-41.07798307 379.76407446 -43.15287293 385.61998969 -44.93359375 392.37890625 C-45.37227783 393.95406006 -45.37227783 393.95406006 -45.81982422 395.56103516 C-46.68359322 398.66350411 -47.52887954 401.77052802 -48.37109375 404.87890625 C-56.4409456 434.26087877 -56.4409456 434.26087877 -67.8671875 441.44921875 C-74.24144499 444.7642115 -79.54778556 446.00437782 -86.74609375 446.01171875 C-87.97972656 446.01300781 -89.21335937 446.01429688 -90.484375 446.015625 C-91.76699219 446.01175781 -93.04960938 446.00789063 -94.37109375 446.00390625 C-95.62277344 446.00777344 -96.87445312 446.01164062 -98.1640625 446.015625 C-100.02998047 446.01369141 -100.02998047 446.01369141 -101.93359375 446.01171875 C-103.60615234 446.01002686 -103.60615234 446.01002686 -105.3125 446.00830078 C-108.60069499 445.95018077 -111.84632599 445.66635768 -115.12133789 445.37231445 C-123.12492478 444.73209614 -131.0959908 444.78106581 -139.11865044 444.83430672 C-141.86434845 444.85194578 -144.60998644 444.86207182 -147.35572815 444.870224 C-155.15184169 444.89447583 -162.94787266 444.93041847 -170.74389648 444.97485352 C-175.53750651 445.00165932 -180.33107153 445.01868138 -185.12474251 445.02972221 C-186.94238021 445.03591277 -188.76000925 445.04589388 -190.57760429 445.0598011 C-193.11356224 445.07905892 -195.64928142 445.08591804 -198.18530273 445.09008789 C-199.30050293 445.10323029 -199.30050293 445.10323029 -200.43823242 445.11663818 C-205.76608646 445.1066584 -210.48071355 444.76928645 -214.37109375 440.87890625 C-214.89336743 434.78038812 -213.86978455 430.55783217 -211.390625 425.03515625 C-211.07623978 424.30486206 -210.76185455 423.57456787 -210.4379425 422.82214355 C-209.43205911 420.50013069 -208.40419899 418.18892204 -207.37109375 415.87890625 C-207.043974 415.13995117 -206.71685425 414.40099609 -206.37982178 413.63964844 C-204.33903241 409.0311285 -202.26662727 404.43748843 -200.1809082 399.84915161 C-198.19872029 395.48630082 -196.22789275 391.11832879 -194.2578125 386.75 C-193.85182831 385.84982651 -193.44584412 384.94965302 -193.02755737 384.02220154 C-188.74924473 374.52136064 -184.55146221 364.98567041 -180.37109375 355.44140625 C-180.00084076 354.59618408 -179.63058777 353.75096191 -179.24911499 352.88012695 C-177.3719879 348.59391405 -175.49622637 344.30710529 -173.62109375 340.02001953 C-170.25343504 332.32238341 -166.87359576 324.6300952 -163.49472046 316.93737793 C-162.37354521 314.38448818 -161.25274282 311.83143508 -160.13208008 309.27832031 C-156.71248594 301.4877775 -153.29190403 293.69767285 -149.86778259 285.90911865 C-142.29453404 268.68280934 -134.73225647 251.45255179 -127.26342773 234.18066406 C-121.09239969 219.91130263 -114.87275586 205.66316742 -108.65673828 191.4133606 C-106.14920205 185.66453621 -103.64425383 179.91458951 -101.140625 174.1640625 C-94.40033222 158.68479018 -87.6442283 143.21282327 -80.84729004 127.7583313 C-73.42427304 110.87633679 -66.03673836 93.97895436 -58.68359375 77.06640625 C-58.19432404 75.94150787 -57.70505432 74.8166095 -57.20095825 73.65762329 C-52.29721423 62.37434006 -47.42034237 51.08247364 -42.71484375 39.71484375 C-42.36366989 38.86668594 -42.01249603 38.01852814 -41.65068054 37.14466858 C-40.0502752 33.27146363 -38.46041405 29.39433374 -36.88598633 25.51049805 C-36.33545069 24.16585226 -35.78491367 22.82120704 -35.234375 21.4765625 C-34.77329346 20.33711182 -34.31221191 19.19766113 -33.8371582 18.02368164 C-30.477645 10.81737197 -25.94946968 5.3441856 -18.93359375 1.56640625 C-12.64758435 -0.12008408 -6.44941978 -0.23932123 0 0 Z M46.62890625 150.87890625 C41.63816281 163.59621195 36.66972177 176.32208188 31.72473145 189.05725098 C31.01029009 190.89687578 30.29538723 192.73632144 29.57995605 194.57556152 C27.6330224 199.58186234 25.6962666 204.59186653 23.77496338 209.60806274 C23.18720345 211.13859666 22.59628536 212.6679223 22.00189209 214.19589233 C13.69185725 233.63640064 13.69185725 233.63640064 13.62890625 253.87890625 C18.28768877 259.35297571 23.90460938 260.48614396 30.90478516 261.06811523 C33.33734901 261.14926984 35.7576204 261.15547596 38.19140625 261.12890625 C39.1045459 261.12286377 40.01768555 261.11682129 40.95849609 261.1105957 C49.17512052 260.99948744 57.38253301 260.63847032 65.5866394 260.18518066 C67.02613809 260.1062907 68.46586589 260.03147113 69.90579224 259.96081543 C71.94223248 259.85810755 73.97667507 259.73651661 76.01171875 259.609375 C77.19137207 259.54129639 78.37102539 259.47321777 79.58642578 259.40307617 C83.75618049 258.73478708 83.75618049 258.73478708 86.62890625 255.87890625 C87.15796925 249.21266851 84.42267375 242.97619204 81.9375 236.94140625 C81.56021255 235.99897568 81.18292511 235.0565451 80.79420471 234.08555603 C79.56165457 231.01252113 78.31401129 227.94585593 77.06640625 224.87890625 C76.20771826 222.74473099 75.35031078 220.6100401 74.49414062 218.47485352 C73.18022986 215.19828335 71.86562004 211.92201887 70.54696655 208.64735413 C66.15543573 197.73681122 61.88356228 186.78089292 57.62890625 175.81640625 C56.64062793 173.27002028 55.65199797 170.72377542 54.66184998 168.17811584 C54.08108392 166.68493912 53.50136213 165.19135556 52.92298889 163.69725037 C51.24544824 159.38383949 49.47357762 155.12365247 47.62890625 150.87890625 C47.29890625 150.87890625 46.96890625 150.87890625 46.62890625 150.87890625 Z " fill="#0C58A4" transform="translate(2027.37109375,2073.12109375)"/>
<path d="M0 0 C1.00388704 -0.00297112 2.00777409 -0.00594224 3.04208195 -0.0090034 C6.40982779 -0.01768306 9.77753805 -0.01919802 13.14529419 -0.02069092 C15.55828935 -0.02531953 17.97128377 -0.03034425 20.38427734 -0.03573608 C26.94209253 -0.04885608 33.49990033 -0.05534081 40.05772543 -0.05974674 C44.15358834 -0.06251177 48.24944889 -0.06674953 52.34531021 -0.07125092 C63.68951964 -0.08343986 75.0337272 -0.0937407 86.37794304 -0.09712601 C87.10353887 -0.09734557 87.8291347 -0.09756514 88.57671828 -0.09779136 C89.30402677 -0.09800964 90.03133526 -0.09822791 90.7806834 -0.09845281 C92.25443387 -0.09889627 93.72818434 -0.09934283 95.20193481 -0.09979248 C95.93296237 -0.10001391 96.66398992 -0.10023534 97.41716982 -0.10046348 C109.26529439 -0.10441244 121.11335749 -0.12187112 132.96145831 -0.145152 C145.1307564 -0.16887076 157.30002364 -0.18132805 169.46934521 -0.18249393 C176.30001051 -0.18341026 183.13059566 -0.18915233 189.96123886 -0.20731354 C196.3847499 -0.22433245 202.80814939 -0.22596325 209.23167801 -0.21717453 C211.58953 -0.21640271 213.94739009 -0.22076582 216.30522156 -0.23063278 C219.52348745 -0.24331105 222.74121072 -0.23749756 225.95947266 -0.22705078 C226.89284545 -0.23510719 227.82621824 -0.24316359 228.78787506 -0.25146413 C235.45520012 -0.20083242 240.57635164 0.61007356 245.48171997 5.51544189 C248.01660582 9.6102575 248.23226524 13.51929382 248.22138786 18.2595787 C248.22152882 19.27416837 248.22166977 20.28875804 248.22181499 21.33409286 C248.21685579 22.44176458 248.21189659 23.5494363 248.20678711 24.69067383 C248.2048937 26.46390215 248.2048937 26.46390215 248.20296204 28.27295327 C248.19851452 31.55075837 248.18957778 34.82851631 248.17880845 38.1063056 C248.16831704 41.64288558 248.16369236 45.17947345 248.15847778 48.71606445 C248.14876889 54.84432553 248.13572784 60.97257211 248.12075424 67.10082245 C248.09737238 76.79031161 248.08437764 86.47980183 248.07305908 96.16931152 C248.06905767 99.48551566 248.06498897 102.80171971 248.06089973 106.11792374 C248.05988051 106.94666887 248.05886128 107.775414 248.05781116 108.62927262 C248.04607029 118.06105826 248.03219152 127.49284033 248.0173645 136.92462158 C248.01601207 137.78671156 248.01465964 138.64880155 248.01326622 139.53701547 C247.99108955 153.50479559 247.96121968 167.47255161 247.92939709 181.44031259 C247.89699346 195.78601519 247.87613484 210.13170518 247.86512482 224.47744012 C247.85790597 233.3228941 247.84122051 242.16822881 247.81232406 251.013639 C247.79330687 257.07767696 247.78523924 263.14166742 247.78572904 269.20573494 C247.7856661 272.70257155 247.7807277 276.19922103 247.7625618 279.6960144 C247.74538626 283.49157238 247.74675225 287.28669331 247.75268555 291.08227539 C247.7432649 292.18102422 247.73384426 293.27977306 247.72413814 294.41181731 C247.75913351 301.10860436 247.94474583 308.51182526 252.56411159 313.81291461 C256.16549322 316.91216679 259.94225747 317.38835261 264.55300903 317.35162354 C265.63196442 317.34830017 266.7109198 317.34497681 267.8225708 317.34155273 C268.99399628 317.32803772 270.16542175 317.31452271 271.37234497 317.30059814 C272.61039886 317.29489807 273.84845276 317.289198 275.12402344 317.2833252 C277.80279258 317.27065667 280.48131153 317.25464192 283.16000366 317.23336792 C289.54140937 317.1842168 295.92292754 317.17271349 302.30449295 317.16031456 C303.7666695 317.15747212 305.22884555 317.15435859 306.69102097 317.15098 C321.28985679 317.1181578 335.88506537 317.1927128 350.48257446 317.40188599 C352.97542526 317.43583366 355.46835716 317.46428505 357.96133423 317.4871521 C361.42943973 317.52000483 364.89675205 317.57166226 368.36453247 317.62872314 C369.38562103 317.63510803 370.40670959 317.64149292 371.45874023 317.64807129 C380.11456399 317.83043976 380.11456399 317.83043976 384.10671997 321.14044189 C386.41921997 323.82794189 386.41921997 323.82794189 388.10671997 326.14044189 C328.45702128 378.82900875 195.77047749 391.64505689 9.41921997 409.95294189 C8.70705322 409.98044525 7.99488647 410.00794861 7.26113892 410.0362854 C-13.07028946 410.79312923 -13.07028946 410.79312923 -19.95578003 406.01544189 C-25.18893513 398.25011497 -24.17842992 388.75698031 -24.15397644 379.7747345 C-24.15699913 378.20269351 -24.16088921 376.63065399 -24.16556901 375.05861706 C-24.17584245 370.7500423 -24.17366886 366.44155082 -24.16938841 362.13296926 C-24.16692003 357.48189675 -24.17593671 352.83084423 -24.1834259 348.17977905 C-24.19617145 339.07249921 -24.1979668 329.96524886 -24.19562564 320.8579616 C-24.19384229 313.45547974 -24.19559249 306.05300683 -24.19985008 298.65052605 C-24.20044527 297.59679584 -24.20104046 296.54306563 -24.20165369 295.45740421 C-24.20286544 293.31673106 -24.20407957 291.17605791 -24.20529606 289.03538477 C-24.21617089 268.96312178 -24.21400928 248.8908756 -24.20791122 228.81861167 C-24.20274119 210.45701079 -24.21399987 192.09546294 -24.23300944 173.73387254 C-24.25238198 154.87705386 -24.26064492 136.02026028 -24.25688618 117.16343158 C-24.25497337 106.57798227 -24.25746959 95.99257811 -24.27160072 85.40713692 C-24.28350798 76.39645338 -24.28492669 67.38584279 -24.27281056 58.37515826 C-24.26691751 53.77861043 -24.26583428 49.18219609 -24.27781296 44.58565712 C-24.28865665 40.37570768 -24.28558646 36.16600343 -24.27155127 31.95606553 C-24.26890019 30.43529334 -24.2712838 28.91450203 -24.27928714 27.39374859 C-24.35761738 11.39607031 -24.35761738 11.39607031 -20.89328003 5.14044189 C-14.54674836 -0.3782813 -7.97404178 -0.00736736 0 0 Z " fill="#0C58A4" transform="translate(783.8932800292969,1316.8595581054688)"/>
<path d="M0 0 C8.02959968 -0.02686277 16.00414607 0.29937778 22.16724074 6.01151431 C24.90024877 11.96746303 25.60298244 16.84672685 25.55542433 23.34574282 C25.56330977 24.69125216 25.56330977 24.69125216 25.57135451 26.06394351 C25.58447556 29.00628368 25.57584523 31.94807561 25.56567824 34.89042056 C25.56770106 36.94730128 25.57061424 39.00418131 25.57437575 41.06105959 C25.57878826 45.36224123 25.57240192 49.6632354 25.55835402 53.96439517 C25.5412521 59.46775139 25.55111666 64.97066896 25.56907141 70.47400916 C25.579929 74.71802458 25.576454 78.96193656 25.56868804 83.20595515 C25.56669206 85.23487236 25.56912407 87.26379907 25.57612669 89.29270518 C25.58377485 92.13094889 25.57209028 94.96848881 25.55542433 97.80668032 C25.56149703 98.63856371 25.56756972 99.47044711 25.57382643 100.32753909 C25.50882545 106.32534997 24.31463529 110.7339121 20.97974074 115.82401431 C15.12640612 119.65895767 7.64357678 119.2732137 0.93091261 119.17508852 C-0.55849084 119.16588885 -0.55849084 119.16588885 -2.07798326 119.15650332 C-4.22177473 119.14225893 -6.36554013 119.12351383 -8.50925767 119.10071337 C-11.9062124 119.06576765 -15.30297688 119.0452831 -18.70006883 119.02887881 C-28.35434506 118.98011203 -38.00836376 118.90882217 -47.6623491 118.81961977 C-53.57838323 118.76596364 -59.49427063 118.73193969 -65.41050279 118.70988238 C-67.6591441 118.69749493 -69.90775727 118.67752447 -72.15626085 118.6497246 C-75.30317258 118.6111535 -78.44931431 118.59748201 -81.59643114 118.58915102 C-82.51822664 118.57162783 -83.44002214 118.55410464 -84.38975084 118.53605044 C-90.23734295 118.55366111 -95.06048275 119.43484505 -99.83275926 123.01151431 C-105.99880871 131.33257735 -104.97636629 142.28680787 -104.92609727 152.16338503 C-104.92412944 153.36191117 -104.9221616 154.56043731 -104.92013413 155.79528242 C-104.91509967 158.41278794 -104.90821697 161.03020992 -104.89813173 163.64769328 C-104.88172353 167.90772313 -104.87235901 172.16775279 -104.86378038 176.42780459 C-104.85068802 182.61220193 -104.83435237 188.79658362 -104.81622827 194.98096812 C-104.78796256 204.75871225 -104.77134124 214.53646064 -104.75675523 224.31423342 C-104.75163157 227.66301601 -104.74645752 231.01179852 -104.74128568 234.36058104 C-104.73999965 235.19732709 -104.73871362 236.03407314 -104.73738861 236.89617513 C-104.72267185 246.40882689 -104.7061856 255.9214751 -104.68847215 265.43412173 C-104.68605004 266.73771492 -104.68605004 266.73771492 -104.68357899 268.06764334 C-104.65702326 282.16195526 -104.61925861 296.2562197 -104.57828359 310.35049606 C-104.53653881 324.8330488 -104.51012002 339.31557643 -104.49707562 353.7981835 C-104.48848498 362.72532351 -104.46746959 371.65226001 -104.43044689 380.57932817 C-104.40615694 386.69518876 -104.39647813 392.81096274 -104.39826695 398.92687089 C-104.39884424 402.4540467 -104.39290801 405.98089463 -104.36939561 409.50799906 C-104.3440464 413.33431466 -104.34980032 417.16022955 -104.35847032 420.98662722 C-104.34613684 422.09723326 -104.33380335 423.2078393 -104.32109612 424.35210007 C-104.36863435 431.02274506 -105.25016146 435.33500667 -108.83275926 441.01151431 C-113.30024361 444.47381468 -117.47491984 445.13501871 -123.01215684 445.14522707 C-124.05930864 445.14949206 -125.10646043 445.15375704 -126.1853441 445.15815127 C-127.328808 445.15769808 -128.4722719 445.1572449 -129.65038621 445.15677798 C-130.85892259 445.16013659 -132.06745897 445.1634952 -133.31261766 445.16695559 C-136.62474786 445.17482771 -139.93681537 445.17813319 -143.2489506 445.17877138 C-145.3201196 445.17948274 -147.39128206 445.18161872 -149.46244943 445.18426859 C-156.69355629 445.19351847 -163.92464473 445.19760402 -171.15575731 445.19681704 C-177.8869762 445.19621668 -184.61811484 445.20676114 -191.34931344 445.2225607 C-197.13544669 445.23565605 -202.92155379 445.24100008 -208.70770174 445.24036163 C-212.16030305 445.24010718 -215.61283306 445.24292876 -219.06541955 445.25353968 C-222.9192942 445.26506055 -226.77305968 445.26046163 -230.62694871 445.25443423 C-232.33303552 445.26286349 -232.33303552 445.26286349 -234.07358873 445.27146304 C-246.9438189 445.22032297 -246.9438189 445.22032297 -251.57494676 441.67948306 C-255.33883877 436.76046557 -255.96105498 432.86052335 -255.94742715 426.80146658 C-255.94756811 425.76659324 -255.94770906 424.7317199 -255.94785428 423.66548675 C-255.94289508 422.53515146 -255.93793588 421.40481617 -255.9328264 420.2402283 C-255.93093299 418.43130635 -255.93093299 418.43130635 -255.92900133 416.58584052 C-255.9245533 413.24154972 -255.91561613 409.89732457 -255.90484774 406.55305171 C-255.89435734 402.94487717 -255.88973183 399.33669489 -255.88451707 395.72850955 C-255.87480749 389.47583928 -255.86176611 383.22318322 -255.84679353 376.97052348 C-255.82341109 367.08333049 -255.81041664 357.19613647 -255.79909837 347.30892336 C-255.79509693 343.9249292 -255.79102822 340.54093512 -255.78693902 337.15694106 C-255.7859198 336.31124396 -255.78490057 335.46554686 -255.78385045 334.59422258 C-255.77210914 324.96907569 -255.75823069 315.34393229 -255.74340379 305.7187897 C-255.74205136 304.83901834 -255.74069893 303.95924698 -255.73930551 303.05281588 C-255.71713278 288.80118443 -255.68726321 274.54957663 -255.65543638 260.29796395 C-255.62302603 245.65958319 -255.60217188 231.02121479 -255.59116411 216.38280231 C-255.58394732 207.3577019 -255.56726873 198.33271848 -255.53836335 189.30766102 C-255.51933754 183.11933612 -255.51127874 176.93105777 -255.51176833 170.74270389 C-255.51170543 167.17486054 -255.50678135 163.60720066 -255.48860109 160.03939974 C-255.46897712 156.16544971 -255.47279547 152.29171803 -255.47872484 148.41771853 C-255.46930419 147.29853685 -255.45988355 146.17935516 -255.45017743 145.02625889 C-255.49093703 137.0522275 -256.12484924 129.43203222 -261.20775926 123.01151431 C-266.91317757 118.66452893 -271.90121817 118.7446308 -278.82030809 118.83207095 C-279.82255922 118.83659777 -280.82481035 118.8411246 -281.85743272 118.8457886 C-284.03073606 118.85673508 -286.20402017 118.87223153 -288.37726343 118.89174998 C-291.82018862 118.92193708 -295.2629439 118.93872876 -298.70597398 118.95180666 C-308.49421544 118.99153605 -318.28225195 119.05655431 -328.07030809 119.12796938 C-334.0606907 119.17075029 -340.05100391 119.19880705 -346.04150522 119.21826899 C-348.32082803 119.22881819 -350.60013177 119.2451952 -352.87936914 119.26757395 C-356.07201363 119.29886703 -359.26425223 119.31155984 -362.45702684 119.3203522 C-363.8608159 119.34124407 -363.8608159 119.34124407 -365.29296434 119.36255801 C-370.83687542 119.35477576 -376.0593026 119.0905944 -380.83275926 116.01151431 C-385.15535831 110.62363462 -385.41156451 105.96268576 -385.35033739 99.22416079 C-385.35734666 98.26717288 -385.36435594 97.31018496 -385.37157762 96.32419741 C-385.38911092 93.17670144 -385.37755206 90.03011237 -385.36400926 86.88260806 C-385.36670528 84.68738027 -385.37058862 82.49215366 -385.37560594 80.29692996 C-385.3814945 75.70305886 -385.37295765 71.10949948 -385.35424364 66.5156647 C-385.33144134 60.63206072 -385.34458981 54.74918612 -385.36853349 48.86560881 C-385.38299716 44.33509236 -385.37838302 39.80474847 -385.36802232 35.27422678 C-385.36535733 33.10492837 -385.36861678 30.93561419 -385.37794054 28.76633418 C-385.38811668 25.73362576 -385.37258999 22.70209421 -385.35033739 19.66947329 C-385.35843431 18.77631915 -385.36653123 17.883165 -385.37487352 16.96294558 C-385.30116434 11.5315663 -384.62806998 8.19763366 -380.83275926 4.01151431 C-376.50773462 1.42565778 -373.32330198 0.6352301 -368.30995023 0.62675345 C-367.00773108 0.61729691 -365.70551192 0.60784037 -364.36383158 0.59809726 C-362.92563207 0.60272669 -361.48743343 0.60763316 -360.0492357 0.61278689 C-358.51604082 0.60734655 -356.98285013 0.60059463 -355.4496662 0.59264499 C-351.23916348 0.57460765 -347.02883703 0.57517826 -342.81830478 0.57877445 C-338.27624434 0.5793979 -333.73424324 0.56278134 -329.19221056 0.54825747 C-321.32166358 0.5254525 -313.45116091 0.51358288 -305.58058298 0.50912821 C-294.19125626 0.50266662 -282.8020095 0.47972714 -271.412715 0.45278492 C-252.92147473 0.40949156 -234.43023783 0.37954219 -215.93896043 0.35794985 C-197.99851379 0.33697239 -180.05809492 0.30971642 -162.11767137 0.27396548 C-161.01317399 0.27176665 -159.9086766 0.26956783 -158.7707096 0.26730237 C-153.22847884 0.25623066 -147.68624833 0.24503705 -142.14401793 0.23378587 C-107.3985971 0.16338822 -72.65317091 0.1026825 -37.90771043 0.05570376 C-36.58689071 0.05391007 -36.58689071 0.05391007 -35.23938775 0.05208015 C-29.49200333 0.04429167 -23.74461866 0.03670752 -17.99723375 0.0292908 C-16.91446894 0.02787608 -16.91446894 0.02787608 -15.80983009 0.02643279 C-12.57180302 0.02223462 -9.33377738 0.01841709 -6.09574866 0.01570344 C-4.06382737 0.01309479 -2.03190618 0.00825908 0 0 Z " fill="#0C58A4" transform="translate(1816.8327592611313,2072.9884856939316)"/>
<path d="M0 0 C1.06350677 0.17761871 2.12701355 0.35523743 3.2227478 0.53823853 C58.89027637 9.85443769 113.89562874 22.47341231 167.6875 39.625 C168.448349 39.86671936 169.209198 40.10843872 169.99310303 40.35748291 C203.55051676 51.03334246 236.52657699 63.26336447 268.6875 77.625 C269.69458008 78.07407715 270.70166016 78.5231543 271.73925781 78.98583984 C278.75505719 82.12907392 285.73075435 85.35332166 292.6875 88.625 C294.39075439 89.42526611 294.39075439 89.42526611 296.12841797 90.24169922 C322.0175401 102.45487937 347.12193723 115.91479993 371.6875 130.625 C372.54553223 131.13820801 373.40356445 131.65141602 374.28759766 132.18017578 C403.29837832 149.624972 431.0760964 169.12551179 458.45214844 189.00732422 C460.73589371 190.66002148 463.02699777 192.30201823 465.3203125 193.94140625 C474.63393492 200.60800947 483.7708246 207.43540305 492.6875 214.625 C494.09902344 215.76195312 494.09902344 215.76195312 495.5390625 216.921875 C497.32452217 218.37288257 499.10212387 219.83362164 500.87109375 221.3046875 C502.96769692 223.03198609 505.07966609 224.71521005 507.22265625 226.3828125 C508.4195803 227.33815407 509.61619952 228.2938777 510.8125 229.25 C511.38170166 229.68119141 511.95090332 230.11238281 512.53735352 230.55664062 C515.67160125 233.10048913 516.65116741 234.46428557 517.5546875 238.4609375 C517.62042969 240.02714844 517.62042969 240.02714844 517.6875 241.625 C511.7532314 240.42484784 506.10621334 238.87490334 500.41015625 236.83203125 C498.84236575 236.28135829 497.27440663 235.73116522 495.70629883 235.18139648 C494.89754303 234.8962619 494.08878723 234.61112732 493.25552368 234.31735229 C451.5378677 219.66757045 411.16675374 213.30528969 366.94078064 213.3465271 C364.44844702 213.34150988 361.95611501 213.33562999 359.46378523 213.32897437 C354.09567588 213.31657732 348.72761118 213.31012559 343.35949135 213.30921364 C335.37760265 213.30782393 327.39575959 213.29495942 319.41388637 213.2799259 C305.97989267 213.25493954 292.54590291 213.23898801 279.11189079 213.22834396 C265.82743427 213.21778832 252.54299254 213.20311987 239.25854683 213.18306351 C238.4298436 213.18181464 237.60114037 213.18056577 236.74732492 213.17927906 C232.53806189 213.17291454 228.32879898 213.16647754 224.11953611 213.16001268 C194.37339963 213.11445658 164.62725834 213.0779635 134.88110352 213.046875 C105.99893489 213.01666855 77.11677603 212.9823104 48.23461914 212.94238281 C47.3429678 212.94115181 46.45131647 212.93992081 45.53264539 212.9386525 C36.57759923 212.92628471 27.62255318 212.91383307 18.66750721 212.90132002 C0.42812416 212.8758357 -17.81125964 212.85091073 -36.05064392 212.82632446 C-36.88909954 212.82519355 -37.72755515 212.82406264 -38.59141851 212.82289747 C-94.49843435 212.74755415 -150.40546616 212.68528708 -206.3125 212.625 C-205.02764172 209.31203312 -203.73486424 206.55598049 -201.625 203.69140625 C-200.83222656 202.60569336 -200.83222656 202.60569336 -200.0234375 201.49804688 C-199.17652344 200.35432617 -199.17652344 200.35432617 -198.3125 199.1875 C-197.12466922 197.56404405 -195.93717224 195.94034382 -194.75 194.31640625 C-194.16347656 193.51734863 -193.57695313 192.71829102 -192.97265625 191.89501953 C-190.72633194 188.82350137 -188.51660763 185.72687383 -186.3125 182.625 C-172.98278246 163.92863171 -159.5906218 145.27024682 -145.42871094 127.19238281 C-141.59829622 122.29832286 -137.83758073 117.35894627 -134.125 112.375 C-129.93220492 106.74957442 -125.65931368 101.19779701 -121.30908203 95.69335938 C-117.93186185 91.41999351 -114.59977503 87.11403893 -111.28588867 82.79125977 C-107.71290155 78.13504362 -104.10788837 73.50420286 -100.5 68.875 C-94.26000337 60.86362221 -88.07903194 52.80865833 -81.92138672 44.73388672 C-80.30447186 42.61447692 -78.68579863 40.49642353 -77.06640625 38.37890625 C-76.26046021 37.32497681 -76.26046021 37.32497681 -75.43823242 36.24975586 C-74.35954969 34.83996823 -73.28029074 33.43062127 -72.20043945 32.02172852 C-69.40129418 28.36755928 -66.61613887 24.70384771 -63.8515625 21.0234375 C-63.27986328 20.26611328 -62.70816406 19.50878906 -62.11914062 18.72851562 C-61.03789452 17.29564477 -59.96072171 15.85968616 -58.88867188 14.41992188 C-42.43878724 -7.32123563 -24.70353179 -4.19208667 0 0 Z " fill="#999A9B" transform="translate(970.3125,1002.375)"/>
<path d="M0 0 C0.69571106 -0.0021904 1.39142212 -0.0043808 2.10821533 -0.00663757 C4.39864519 -0.00893875 6.68776909 0.0173091 8.97802734 0.04418945 C10.60248408 0.04912929 12.22694659 0.05241776 13.85140991 0.05415344 C18.13782978 0.0637388 22.42372134 0.09811086 26.70996094 0.13702393 C30.12178512 0.16381375 33.53353671 0.17274356 36.94544888 0.18072128 C122.123625 0.38502158 122.123625 0.38502158 131.25146484 8.8449707 C133.48869413 12.93034592 133.81427056 16.81037439 133.80921936 21.41338062 C133.81059371 22.38881944 133.81196806 23.36425827 133.81338406 24.36925584 C133.80799161 25.96523694 133.80799161 25.96523694 133.80249023 27.59346008 C133.80263909 28.72983782 133.80278795 29.86621555 133.80294132 31.03702897 C133.8022456 34.85364351 133.79439742 38.67021021 133.78662109 42.48681641 C133.78413921 45.22017894 133.78318643 47.95354148 133.78219604 50.68690491 C133.77930917 56.57942115 133.77286885 62.47192486 133.76412964 68.3644352 C133.75156288 76.90142402 133.74549551 85.43840821 133.74119627 93.97540476 C133.73412697 107.8493295 133.72332648 121.72324842 133.70947266 135.59716797 C133.70823094 136.84268946 133.70823094 136.84268946 133.70696414 138.113373 C133.70022534 144.84426112 133.69330548 151.57514904 133.68636131 158.30603695 C133.6803123 164.17358835 133.67433025 170.04113982 133.66845703 175.90869141 C133.6676289 176.7346901 133.66680078 177.56068879 133.66594756 178.41171775 C133.65222606 192.22070313 133.6424849 206.02968861 133.63554668 219.83867902 C133.63108209 228.34472732 133.62307652 236.85075803 133.61040187 245.35679813 C133.6019277 251.19755025 133.5970743 257.03829834 133.59497666 262.87905619 C133.59364155 266.24100542 133.59013017 269.60291408 133.58321762 272.96485901 C131.57206172 299.29870128 131.57206172 299.29870128 139.81396484 322.8449707 C148.42847501 327.71404167 158.73146229 326.75786053 168.31274414 326.74121094 C169.98904675 326.7456037 171.66534718 326.75090785 173.34164429 326.75704956 C176.93632527 326.76850457 180.53094766 326.77400563 184.12564659 326.77493095 C189.81150503 326.77687882 195.49724281 326.79496925 201.18305969 326.81568909 C215.29949631 326.86477033 229.4159654 326.89578331 243.5324707 326.91699219 C254.5169824 326.93351639 265.50138978 326.95631521 276.48583156 327.00001293 C282.13669839 327.0217796 287.78736697 327.0298482 293.43827283 327.0276202 C296.95234469 327.02928733 300.46628702 327.04333735 303.98031235 327.06083298 C305.60808559 327.06642965 307.23588571 327.06692031 308.86366081 327.06189537 C311.08812927 327.05574867 313.31178112 327.06799393 315.53617859 327.08470154 C316.77997127 327.08671287 318.02376394 327.08872419 319.30524731 327.09079647 C323.9003894 327.60572109 327.3230718 329.00987813 330.50146484 332.4074707 C332.39400964 335.6945222 332.81316921 338.75610759 332.82940674 342.51045227 C332.83511688 343.30517944 332.84082703 344.09990662 332.84671021 344.91871643 C332.84782806 345.78165817 332.84894592 346.64459991 332.85009766 347.53369141 C332.85506256 348.44962067 332.86002747 349.36554993 332.86514282 350.30923462 C332.87974273 353.33808139 332.88656282 356.36687578 332.89208984 359.39575195 C332.89784304 361.5031891 332.90360076 363.61062623 332.90936279 365.71806335 C332.91986657 370.13724003 332.92571333 374.55639854 332.92919922 378.97558594 C332.93468287 384.63146742 332.95871092 390.28710804 332.98717117 395.94291401 C333.00581682 400.29671424 333.01100418 404.65045666 333.0125351 409.00429344 C333.01555774 411.08904525 333.02357315 413.17379614 333.03672028 415.25850868 C333.05382098 418.17854646 333.05189061 421.09799853 333.04541016 424.01806641 C333.05462494 424.87493546 333.06383972 425.7318045 333.07333374 426.61463928 C333.03619033 431.97148436 332.39321435 435.79211508 329.68896484 440.4699707 C326.01997524 443.19466462 323.40428107 443.84566918 318.87428379 443.85028744 C317.70457462 443.85872738 316.53486545 443.86716732 315.32971054 443.87586302 C314.04879074 443.86985297 312.76787093 443.86384292 311.44813538 443.85765076 C310.07040851 443.86182386 308.69268509 443.86730126 307.31496805 443.87397057 C303.52965441 443.88844707 299.7445581 443.88417364 295.95923245 443.87680376 C291.87666527 443.87207982 287.79414564 443.88457505 283.71159363 443.89482117 C275.71381987 443.91202966 267.7161246 443.91284495 259.71833713 443.90760826 C253.2186898 443.90356919 246.71906569 443.90500699 240.21941948 443.91035652 C239.29485861 443.91110494 238.37029775 443.91185337 237.41771988 443.91262447 C235.53956393 443.91415592 233.66140799 443.91569427 231.78325205 443.91723944 C214.16469789 443.93097186 196.54618811 443.92552154 178.92763495 443.91405422 C162.80444509 443.90412074 146.68136997 443.91706319 130.5581978 443.94098841 C114.00783696 443.96536276 97.4575296 443.97499141 80.90715116 443.96833569 C71.61338587 443.9648398 62.31970885 443.96709987 53.02595711 443.98458672 C45.11448588 443.99928788 37.20316507 443.9999715 29.29169685 443.9825158 C25.25446833 443.97398622 21.21750874 443.97190375 17.18029404 443.98716736 C13.48470841 444.00096651 9.78962334 443.99631351 6.09406703 443.97692812 C4.12335802 443.97136413 2.15262382 443.9854794 0.18196255 444.00028223 C-9.38830386 443.92016279 -9.38830386 443.92016279 -13.02152348 441.81364536 C-17.41203849 437.31926393 -17.56138681 432.23236406 -17.56551075 426.1791172 C-17.56871723 425.46378559 -17.57192371 424.74845397 -17.57522735 424.01144564 C-17.58352987 421.61404475 -17.57760223 419.21689352 -17.57173157 416.81948853 C-17.57475214 415.08346911 -17.57864114 413.34745102 -17.58332413 411.61143529 C-17.59362507 406.84035083 -17.59141697 402.06934134 -17.58714354 397.29825068 C-17.58468012 392.15295249 -17.59368571 387.00767253 -17.60118103 381.86238098 C-17.61394078 371.7819297 -17.61572013 361.70150503 -17.61338077 351.62104703 C-17.61159886 343.42855852 -17.61334451 335.23607809 -17.61760521 327.04359055 C-17.6182004 325.87828619 -17.61879559 324.71298183 -17.61940881 323.51236521 C-17.62062054 321.14516327 -17.62183468 318.77796132 -17.62305119 316.41075937 C-17.63393166 294.20300917 -17.63176184 271.99527414 -17.62566634 249.78752308 C-17.62049681 229.465764 -17.63175269 209.14405285 -17.65076456 188.82230325 C-17.67013081 167.96204121 -17.67840109 147.10180186 -17.67464131 126.24153078 C-17.67272741 114.52763885 -17.67523517 102.81378771 -17.68935585 91.09990311 C-17.70125517 81.12772054 -17.70269083 71.15560388 -17.69056568 61.18342043 C-17.68466681 56.09487524 -17.68360544 51.00645068 -17.69556808 45.91791344 C-17.70639228 41.25952549 -17.70336484 36.60135942 -17.6893064 31.942982 C-17.68664991 30.25796971 -17.68905578 28.57294023 -17.69704226 26.88794477 C-17.76778167 10.84975739 -17.76778167 10.84975739 -14.31103516 4.4699707 C-9.89838896 0.69071749 -5.79664842 -0.02726651 0 0 Z " fill="#0C58A4" transform="translate(1134.31103515625,2073.530029296875)"/>
<path d="M0 0 C0.66 0 1.32 0 2 0 C3.63137458 2.15328944 5.13643117 4.31219421 6.625 6.5625 C7.62654275 8.05019428 8.62921209 9.53713054 9.6328125 11.0234375 C10.17583008 11.83006836 10.71884766 12.63669922 11.27832031 13.46777344 C13.03433158 16.05049449 14.81999036 18.6098497 16.6171875 21.1640625 C32.43668038 43.64779982 47.37642745 66.72355688 62 90 C62.52722656 90.83837402 63.05445313 91.67674805 63.59765625 92.54052734 C86.60411931 129.20531138 108.30283489 166.80516328 128.4375 205.125 C128.8922168 205.98971924 129.34693359 206.85443848 129.81542969 207.74536133 C134.30467963 216.36680187 135.83445077 225.23312294 133.234375 234.82421875 C129.95980849 241.98445046 124.38327776 247.3782226 119 253 C117.86572113 254.28352609 116.7397408 255.57446906 115.625 256.875 C107.32929812 266.37214835 98.6525322 275.44549291 89.75 284.375 C88.91057861 285.21901367 88.07115723 286.06302734 87.20629883 286.93261719 C82.29766471 291.82913122 77.2580295 296.48362007 72 301 C70.39231627 302.45445517 68.78760285 303.91220895 67.1875 305.375 C61.93601708 310.1021291 56.52989505 314.60346283 51 319 C50.34999023 319.51723633 49.69998047 320.03447266 49.03027344 320.56738281 C4.89234921 355.56635067 -43.88544602 383.11306094 -97 402 C-97.93537598 402.33596191 -98.87075195 402.67192383 -99.83447266 403.01806641 C-133.31837586 414.95125241 -175.22505982 429.01890652 -211 428 C-208.63901131 425.37608851 -206.18695667 423.86380739 -203.08203125 422.20703125 C-202.08679443 421.66739746 -201.09155762 421.12776367 -200.06616211 420.57177734 C-198.99245361 419.99121582 -197.91874512 419.4106543 -196.8125 418.8125 C-177.88797926 408.39117573 -159.97803495 396.36156832 -143 383 C-142.33564941 382.47841309 -141.67129883 381.95682617 -140.98681641 381.41943359 C-120.70654027 365.41526401 -100.76165517 347.52330242 -85 327 C-84.10407472 325.91221179 -83.2040339 324.82780533 -82.30078125 323.74609375 C-68.55264449 307.17484192 -57.20729122 288.92441586 -47 270 C-46.5349707 269.13858398 -46.06994141 268.27716797 -45.59082031 267.38964844 C-1.81569002 185.32276667 3.67347919 91.01630892 0 0 Z " fill="#999A9B" transform="translate(1658,1423)"/>
<path d="M0 0 C9.02658561 8.7508539 14.54375263 18.99685559 15.12109375 31.64453125 C15.14449346 33.65871867 15.14525636 35.67327852 15.125 37.6875 C15.11742676 38.74267822 15.10985352 39.79785645 15.10205078 40.88500977 C14.81989261 54.25457004 11.38544486 64.86552282 2 74.6875 C0.8553125 75.7703125 0.8553125 75.7703125 -0.3125 76.875 C-1.3025 78.195 -2.2925 79.515 -3.3125 80.875 C2.9575 84.835 9.2275 88.795 15.6875 92.875 C13.7074877 97.82503075 12.09920047 100.01439157 8.6875 103.875 C4.99851439 102.54591924 2.10808914 100.90523344 -1.04296875 98.58203125 C-1.92919922 97.95232422 -2.81542969 97.32261719 -3.72851562 96.67382812 C-5.56889568 95.35482424 -7.39727455 94.01890449 -9.21289062 92.66601562 C-13.71152631 89.51209848 -16.87529652 87.34205327 -22.48828125 87.9375 C-24.09866402 88.23786995 -25.70695763 88.54974862 -27.3125 88.875 C-36.0001428 89.45377634 -44.93891272 89.42230487 -53.3125 86.875 C-54.25351562 86.59140625 -55.19453125 86.3078125 -56.1640625 86.015625 C-67.46495179 81.98585053 -76.10391575 74.44742384 -81.4375 63.75 C-87.79469807 49.45790508 -88.38554459 33.76746044 -83.3125 18.875 C-78.07601006 6.27050018 -69.74933703 -0.95631285 -57.7421875 -6.71484375 C-39.36552965 -14.27062221 -15.56709527 -13.16491113 0 0 Z M-61.625 10.5625 C-69.52914422 19.05745904 -72.84740957 29.73551466 -72.5625 41.203125 C-71.41531074 53.4637102 -67.1965195 63.21870369 -57.71875 71.1484375 C-49.07494174 77.35065057 -39.75885133 78.74552928 -29.3125 77.875 C-19.02775927 75.80146356 -11.20594562 72.20736869 -5 63.625 C1.99307071 52.05880402 2.39272773 38.34510399 0.03125 25.23046875 C-2.70562838 16.04069177 -7.89887225 8.51291317 -16.3515625 3.80078125 C-31.31702659 -3.26458725 -49.51035231 -0.64637964 -61.625 10.5625 Z " fill="#999A9B" transform="translate(645.3125,2626.125)"/>
<path d="M0 0 C18 0 18 0 22.14453125 3.3046875 C23.54321289 5.48461914 23.54321289 5.48461914 24.8125 7.875 C25.8472187 9.53884353 26.88372898 11.20157402 27.921875 12.86328125 C28.42654297 13.71873535 28.93121094 14.57418945 29.45117188 15.45556641 C31.91417421 19.50181646 34.74324058 23.26032201 37.5625 27.0625 C38.64976643 28.56189776 39.73441533 30.06319716 40.81640625 31.56640625 C41.34637207 32.30262207 41.87633789 33.03883789 42.42236328 33.79736328 C45.46160799 38.0406418 48.46168001 42.31149403 51.46313477 46.58154297 C55.79902419 52.74038706 60.206 58.84658354 64.63671875 64.9375 C65.14847656 65.64261719 65.66023438 66.34773438 66.1875 67.07421875 C66.63480469 67.68869873 67.08210938 68.30317871 67.54296875 68.9362793 C69.41487341 71.58762147 71.19968871 74.29953307 73 77 C73.33 51.59 73.66 26.18 74 0 C78.29 0 82.58 0 87 0 C87 31.68 87 63.36 87 96 C71 96 71 96 66.625 91.875 C65.38065358 89.93935001 64.1746936 87.97869498 63 86 C61.85980445 84.39616473 60.71873653 82.79280706 59.55688477 81.20458984 C58.27264255 79.44540226 57.01318737 77.67051066 55.7578125 75.890625 C52.76326406 71.65612939 49.72709878 67.45222492 46.6875 63.25 C46.14077637 62.49340088 45.59405273 61.73680176 45.03076172 60.95727539 C42.25727295 57.11952209 39.48126149 53.28360868 36.703125 49.44921875 C35.8819519 48.31468262 35.8819519 48.31468262 35.04418945 47.15722656 C34.03576306 45.7640321 33.0265981 44.37137163 32.01635742 42.97949219 C26.26975404 35.03761124 20.65448985 27.01052729 15 19 C14.67 44.41 14.34 69.82 14 96 C9.38 96 4.76 96 0 96 C0 64.32 0 32.64 0 0 Z " fill="#999A9B" transform="translate(1669,2617)"/>
<path d="M0 0 C61.60361842 0 61.60361842 0 76.5625 13.8125 C86.76783364 25.13233474 87.89260757 39.14806695 87.1953125 53.70410156 C86.19574357 65.45403432 80.42156148 75.39467345 71.9609375 83.375 C51.49822193 100.33215075 25.19499006 96 0 96 C0 64.32 0 32.64 0 0 Z M14 11 C14 35.42 14 59.84 14 85 C40.61430121 85.91247631 40.61430121 85.91247631 63.03515625 74.1484375 C71.43866919 65.19182711 73.33586261 55.53813852 73.2109375 43.5703125 C72.6583835 34.21782447 69.12038092 26.14663928 62.4765625 19.46875 C49.20389606 8.85061685 29.34875296 11 14 11 Z " fill="#999A9B" transform="translate(1370,2617)"/>
<path d="M0 0 C53.7559322 0 53.7559322 0 66 7 C66.76828125 7.43183594 67.5365625 7.86367187 68.328125 8.30859375 C77.63770835 13.996071 83.12719953 22.3974424 85.72265625 32.93359375 C88.49258218 47.92054398 87.0313043 62.92973457 78.4375 75.75 C68.78150318 88.13680553 55.9807726 93.00384548 41 96 C27.47 96 13.94 96 0 96 C0 64.32 0 32.64 0 0 Z M13 11 C13 35.42 13 59.84 13 85 C33.42727795 86.04402001 33.42727795 86.04402001 52 81 C52.91652344 80.56429687 53.83304688 80.12859375 54.77734375 79.6796875 C60.71216673 76.49004696 64.6302814 72.82329495 68 67 C68.61875 65.97712891 68.61875 65.97712891 69.25 64.93359375 C74.02166176 55.4068385 73.66384264 41.81276551 70.4375 31.8125 C66.89165533 23.84361564 61.73350577 18.54428709 53.74609375 15.03125 C39.9445685 9.84831591 28.62312569 11 13 11 Z " fill="#999A9B" transform="translate(1861,2617)"/>
<path d="M0 0 C47.62295082 0 47.62295082 0 58.125 7.8125 C64.04685868 13.76695607 65.16010373 18.05550768 65.5 26.3125 C65.32138867 34.17139837 63.70271025 39.9454883 58.35546875 45.80078125 C54.62298072 49.19625004 50.44199054 51.64302543 46 54 C46.886875 54.67933594 47.77375 55.35867187 48.6875 56.05859375 C52.18283247 58.97989767 54.52486552 62.26919592 57 66.0625 C57.94275515 67.47219446 58.88683509 68.88100357 59.83203125 70.2890625 C60.33428223 71.0409082 60.8365332 71.79275391 61.35400391 72.56738281 C65.01184707 77.97330824 68.80946513 83.28397627 72.58007812 88.61157227 C73.15564453 89.42940186 73.73121094 90.24723145 74.32421875 91.08984375 C74.84072998 91.82066162 75.35724121 92.55147949 75.8894043 93.30444336 C77 95 77 95 77 96 C71.18940743 97.6362745 65.64466473 98.64463205 60 96 C53.64551724 89.78614385 49.35019058 81.68683974 44.88696289 74.07861328 C40.17756982 66.39515531 36.03247238 60.2581181 27 58 C20.07 57.505 20.07 57.505 13 57 C13 69.87 13 82.74 13 96 C8.71 96 4.42 96 0 96 C0 64.32 0 32.64 0 0 Z M13 11 C13 22.55 13 34.1 13 46 C16.63 46.0825 20.26 46.165 24 46.25 C25.12792969 46.28641602 26.25585938 46.32283203 27.41796875 46.36035156 C34.98604866 46.4430774 40.32105164 45.24613091 46.05859375 40.18359375 C46.51363281 39.60738281 46.96867187 39.03117187 47.4375 38.4375 C47.91058594 37.85871094 48.38367187 37.27992188 48.87109375 36.68359375 C51.6542422 32.53294675 51.59217986 27.80323663 51 23 C48.25048743 17.60280865 44.7537377 14.02718787 39.046875 11.8984375 C33.95699705 10.51749903 28.79417073 10.7871903 23.5625 10.875 C20.076875 10.91625 16.59125 10.9575 13 11 Z " fill="#999A9B" transform="translate(1202,2617)"/>
<path d="M0 0 C1.93166016 0.01740234 1.93166016 0.01740234 3.90234375 0.03515625 C5.19269531 0.04417969 6.48304688 0.05320312 7.8125 0.0625 C8.81152344 0.07410156 9.81054688 0.08570312 10.83984375 0.09765625 C18.39557927 16.96646342 25.81260429 33.88641132 33.05029297 50.89453125 C34.75993096 54.91171207 36.47408866 58.92695718 38.18830872 62.94218445 C39.76580427 66.63832847 41.34146841 70.33525124 42.91665649 74.03237915 C43.69752407 75.86461382 44.47891485 77.6966256 45.26083374 79.52841187 C46.35663959 82.09632048 47.45010995 84.66521105 48.54296875 87.234375 C48.87672012 88.01526489 49.2104715 88.79615479 49.55433655 89.60070801 C51.83984375 94.98342778 51.83984375 94.98342778 51.83984375 96.09765625 C46.88984375 96.09765625 41.93984375 96.09765625 36.83984375 96.09765625 C32.76988862 88.19715511 29.36271372 80.31768619 25.83984375 72.09765625 C10.98984375 72.09765625 -3.86015625 72.09765625 -19.16015625 72.09765625 C-22.46015625 80.01765625 -25.76015625 87.93765625 -29.16015625 96.09765625 C-34.11015625 96.09765625 -39.06015625 96.09765625 -44.16015625 96.09765625 C-41.92733439 89.05791974 -39.23846236 82.31609692 -36.328125 75.53125 C-35.85914291 74.43049133 -35.39016083 73.32973267 -34.90696716 72.19561768 C-33.39093199 68.64052229 -31.8695646 65.08774089 -30.34765625 61.53515625 C-29.30571108 59.09681052 -28.26388207 56.65841516 -27.22216797 54.2199707 C-21.45137544 40.72375692 -15.65653417 27.23794965 -9.78515625 13.78515625 C-9.49506683 13.11894257 -9.20497742 12.45272888 -8.90609741 11.7663269 C-8.11076099 9.94195751 -7.31137891 8.11935335 -6.51171875 6.296875 C-6.07682129 5.30518311 -5.64192383 4.31349121 -5.19384766 3.29174805 C-3.69684487 0.11424119 -3.69684487 0.11424119 0 0 Z M2.83984375 14.09765625 C2.53433594 14.93941406 2.22882812 15.78117187 1.9140625 16.6484375 C-1.97217176 27.22535981 -6.20960903 37.6443964 -10.55200195 48.04223633 C-11.01823975 49.17040771 -11.48447754 50.2985791 -11.96484375 51.4609375 C-12.38749512 52.47454346 -12.81014648 53.48814941 -13.24560547 54.5324707 C-14.32806603 57.11472944 -14.32806603 57.11472944 -14.16015625 60.09765625 C-2.28015625 60.09765625 9.59984375 60.09765625 21.83984375 60.09765625 C14.89811092 42.66790164 14.89811092 42.66790164 7.83984375 25.28515625 C7.42303345 24.26627319 7.42303345 24.26627319 6.99780273 23.22680664 C5.71800819 20.12329489 4.39832232 17.07225236 2.83984375 14.09765625 Z " fill="#999A9B" transform="translate(814.16015625,2616.90234375)"/>
<path d="M0 0 C4.29 0 8.58 0 13 0 C13.01981934 1.86132568 13.03963867 3.72265137 13.06005859 5.64038086 C13.1280774 11.81910932 13.20487043 17.9976811 13.28752708 24.17623043 C13.33728112 27.91896359 13.38361127 31.66167135 13.421875 35.40454102 C13.45899395 39.02271273 13.50542233 42.6406604 13.55806351 46.25863838 C13.57646722 47.63274736 13.59162578 49.0069041 13.60334396 50.38108635 C13.70391215 61.77623767 13.95496345 72.17698189 22 81 C29.13016237 86.06506642 37.48476717 86.78121402 46 86 C52.23374576 84.6294016 57.95632519 82.60465173 61.74736023 77.23236084 C66.68032875 68.44119356 66.46422454 57.82910937 66.51171875 48.046875 C66.52861131 46.65153473 66.54676749 45.25620925 66.56611633 43.86090088 C66.61312705 40.23118722 66.64324975 36.6015335 66.66955566 32.97161865 C66.69961176 29.25048989 66.74605423 25.52956698 66.79101562 21.80859375 C66.87649024 14.53914836 66.94256062 7.26973087 67 0 C71.29 0 75.58 0 80 0 C80.06803153 8.69338265 80.12296266 17.38658576 80.15543652 26.0801754 C80.17102972 30.11784201 80.19215048 34.15531556 80.22631836 38.19287109 C80.25914022 42.09621681 80.27690061 45.99937793 80.28463173 49.9028511 C80.2901346 51.38505581 80.30087933 52.8672515 80.31719017 54.34937668 C80.45257593 67.17251593 79.11403565 78.07570972 70.28515625 87.91015625 C60.64996805 97.19067494 48.14657993 98.40432498 35.375 98.21484375 C24.21460125 97.82558374 15.13469607 94.41803517 7.25 86.5 C-0.54366259 76.75466019 -0.56458901 64.54274252 -0.390625 52.63671875 C-0.38314273 51.10830942 -0.37745923 49.57989034 -0.37347412 48.0514679 C-0.35837352 44.07455853 -0.31923164 40.09825564 -0.2746582 36.12158203 C-0.23336418 32.0453308 -0.21539109 27.96897929 -0.1953125 23.89257812 C-0.15271747 15.92807929 -0.08250083 7.9641855 0 0 Z " fill="#999A9B" transform="translate(680,2617)"/>
<path d="M0 0 C18.48 0 36.96 0 56 0 C56 3.63 56 7.26 56 11 C42.14 11 28.28 11 14 11 C14 21.23 14 31.46 14 42 C26.87 42 39.74 42 53 42 C53 45.63 53 49.26 53 53 C40.13 53 27.26 53 14 53 C14 63.56 14 74.12 14 85 C28.52 85 43.04 85 58 85 C58 88.63 58 92.26 58 96 C38.86 96 19.72 96 0 96 C0 64.32 0 32.64 0 0 Z " fill="#999A9B" transform="translate(1783,2617)"/>
<path d="M0 0 C18.15 0 36.3 0 55 0 C55 3.63 55 7.26 55 11 C41.47 11 27.94 11 14 11 C14 21.23 14 31.46 14 42 C26.54 42 39.08 42 52 42 C52 45.63 52 49.26 52 53 C39.46 53 26.92 53 14 53 C14 63.56 14 74.12 14 85 C28.52 85 43.04 85 58 85 C58 88.63 58 92.26 58 96 C38.86 96 19.72 96 0 96 C0 64.32 0 32.64 0 0 Z " fill="#999A9B" transform="translate(1477,2617)"/>
<path d="M0 0 C18.15 0 36.3 0 55 0 C55 3.63 55 7.26 55 11 C41.47 11 27.94 11 14 11 C14 21.23 14 31.46 14 42 C26.54 42 39.08 42 52 42 C52 45.63 52 49.26 52 53 C39.46 53 26.92 53 14 53 C14 63.56 14 74.12 14 85 C28.52 85 43.04 85 58 85 C58 88.63 58 92.26 58 96 C38.86 96 19.72 96 0 96 C0 64.32 0 32.64 0 0 Z " fill="#999A9B" transform="translate(1293,2617)"/>
<path d="M0 0 C18.48 0 36.96 0 56 0 C56 3.63 56 7.26 56 11 C42.14 11 28.28 11 14 11 C14 21.56 14 32.12 14 43 C26.54 43 39.08 43 52 43 C52 46.63 52 50.26 52 54 C39.46 54 26.92 54 14 54 C14 67.86 14 81.72 14 96 C9.38 96 4.76 96 0 96 C0 64.32 0 32.64 0 0 Z " fill="#999A9B" transform="translate(1554,2617)"/>
<path d="M0 0 C2.40068434 -0.21742047 4.78170109 -0.37467466 7.1875 -0.5 C7.86103516 -0.56703125 8.53457031 -0.6340625 9.22851562 -0.703125 C11.23046875 -0.78125 11.23046875 -0.78125 15 0 C17.29678984 2.30681402 18.54933405 5.11171513 20 8 C21.18111148 10.10312505 22.3677551 12.20314863 23.55859375 14.30078125 C24.85376854 16.63683914 26.14670169 18.9740321 27.4375 21.3125 C28.08639854 22.48382924 28.73548613 23.65505376 29.38476562 24.82617188 C33.2842756 31.8690432 37.15469314 38.92739805 41 46 C50.47226945 30.95044504 59.18861057 15.44218249 68 0 C72.95 0 77.9 0 83 0 C81.51490554 3.71273615 80.06559659 6.80805035 78.0859375 10.2265625 C77.49699707 11.24621094 76.90805664 12.26585938 76.30126953 13.31640625 C75.34776611 14.95416016 75.34776611 14.95416016 74.375 16.625 C73.71999512 17.75550781 73.06499023 18.88601562 72.39013672 20.05078125 C66.66457148 29.91954384 60.85400202 39.73826979 55.01708984 49.54150391 C54.37465332 50.62093262 53.7322168 51.70036133 53.0703125 52.8125 C52.50070801 53.76769531 51.93110352 54.72289063 51.34423828 55.70703125 C48.88195508 59.90713365 48.78667194 63.2771612 48.68359375 68.0703125 C48.66281265 68.86654022 48.64203156 69.66276794 48.62062073 70.48312378 C48.55515851 73.03032685 48.49625585 75.57763425 48.4375 78.125 C48.3943116 79.85027127 48.35069721 81.57553193 48.30664062 83.30078125 C48.19948055 87.53374685 48.09820377 91.76681753 48 96 C43.38 96 38.76 96 34 96 C34.06453369 94.5605603 34.06453369 94.5605603 34.13037109 93.09204102 C34.95311556 71.59921377 33.55742166 56.17145861 20.99902344 37.97070312 C17.52952695 32.81476355 14.5216454 27.39176406 11.4375 22 C10.31332121 20.08208719 9.18712871 18.1653528 8.05859375 16.25 C6.05523032 12.82175766 4.05870233 9.39015256 2.09765625 5.9375 C1.69168213 5.22464844 1.28570801 4.51179688 0.86743164 3.77734375 C0 2 0 2 0 0 Z " fill="#999A9B" transform="translate(1063,2617)"/>
<path d="M0 0 C24.75 0 49.5 0 75 0 C75 3.63 75 7.26 75 11 C64.77 11 54.54 11 44 11 C44 39.05 44 67.1 44 96 C39.71 96 35.42 96 31 96 C31 67.95 31 39.9 31 11 C20.77 11 10.54 11 0 11 C0 7.37 0 3.74 0 0 Z " fill="#999A9B" transform="translate(982,2617)"/>
<path d="M0 0 C4.29 0 8.58 0 13 0 C13 28.05 13 56.1 13 85 C27.19 85 41.38 85 56 85 C56 88.63 56 92.26 56 96 C37.52 96 19.04 96 0 96 C0 64.32 0 32.64 0 0 Z " fill="#999A9B" transform="translate(881,2617)"/>
<path d="M0 0 C4.62 0 9.24 0 14 0 C14 31.68 14 63.36 14 96 C9.38 96 4.76 96 0 96 C0 64.32 0 32.64 0 0 Z " fill="#999A9B" transform="translate(952,2617)"/>
<path d="M0 0 C4.29 0 8.58 0 13 0 C13 31.68 13 63.36 13 96 C8.71 96 4.42 96 0 96 C0 64.32 0 32.64 0 0 Z " fill="#999A9B" transform="translate(1629,2617)"/>
</svg>
